# xmcd CD database file
#
# Track frame offsets:
#	183
#	26283
#	59508
#	87708
#	110733
#	142983
#	169008
#	192033
#	219933
#
# Disc length: 3505 seconds
#
# Revision: 1
# Processed by: cddbd v1.4PL0 Copyright (c) Steve Scherf et al.
# Submitted via: CDex 1.50
#
DISCID=790daf09
DTITLE=PETER O"MARA - Avenue 'U'
DYEAR=1990
DGENRE=Jazz
TTITLE0=Uptown
TTITLE1=Three
TTITLE2=Calypso
TTITLE3=Waiting
TTITLE4=Costa Del Sol
TTITLE5=Avenue 'U'
TTITLE6=A.N.M.C.
TTITLE7=Inner Voice
TTITLE8=Celebration
EXTD=YEAR: 1990
EXTT0=
EXTT1=
EXTT2=
EXTT3=
EXTT4=
EXTT5=
EXTT6=
EXTT7=
EXTT8=
PLAYORDER=
